# xmcd CD database file
#
# Track frame offsets:
#	150
#	11852
#	22545
#	33205
#	44935
#	56065
#	66072
#	75137
#	85842
#	97530
#	108032
#	122270
#	135057
#	146510
#
# Disc length: 2118 seconds
#
# Revision: 2
# Processed by: cddbd v1.4b42PL1 Copyright (c) Steve Scherf et al.
# Submitted via: CDex 1.40Beta6
#
DISCID=9408440e
DTITLE=Bobby Day - Rockin' Robin
DYEAR=1900
DGENRE=Rock and Roll
TTITLE0=Rockin' Robin
TTITLE1=The Bluebird, The Buzzard And The Oriole
TTITLE2=Over And Over
TTITLE3=My Blue Heaven
TTITLE4=Little Bitty Pretty One
TTITLE5=That's All I Want
TTITLE6=Mr. and Mrs. Rock 'n' Roll
TTITLE7=Sweet Little Thing
TTITLE8=Three Young Rebs From Georgia
TTITLE9=Gotta New Girl
TTITLE10=Say Yes
TTITLE11=Unchained Melody
TTITLE12=Love Is A One-Time Affair
TTITLE13=Little Turtle Dove
EXTD=
EXTT0=
EXTT1=
EXTT2=
EXTT3=
EXTT4=
EXTT5=
EXTT6=
EXTT7=
EXTT8=
EXTT9=
EXTT10=
EXTT11=
EXTT12=
EXTT13=
PLAYORDER=
